<?xml version="1.0" encoding="UTF-8"?>
<svg width="800" height="600" viewBox="0 0 800 600" xmlns="http://www.w3.org/2000/svg">
  <!-- Background -->
  <rect width="800" height="600" fill="#f5f3ff"/>
  
  <!-- Tattoo Machine Outline -->
  <g transform="translate(500, 300) rotate(45)">
    <rect x="-20" y="-120" width="40" height="200" rx="10" fill="#a21caf"/>
    <rect x="-30" y="-150" width="60" height="50" rx="5" fill="#701a75"/>
    <rect x="-15" y="80" width="30" height="40" rx="5" fill="#86198f"/>
    <rect x="-25" y="70" width="50" height="10" rx="2" fill="#701a75"/>
    <rect x="-10" y="-180" width="20" height="30" rx="5" fill="#86198f"/>
    <circle cx="0" cy="-130" r="15" fill="#f0abfc"/>
    <rect x="-5" y="120" width="10" height="20" fill="#d946ef"/>
    <line x1="0" y1="140" x2="0" y2="160" stroke="#d946ef" stroke-width="2"/>
    <line x1="-4" y1="150" x2="4" y2="170" stroke="#d946ef" stroke-width="2"/>
    <line x1="4" y1="150" x2="-4" y2="170" stroke="#d946ef" stroke-width="2"/>
  </g>
  
  <!-- Calendar/Booking Element -->
  <rect x="100" y="150" width="300" height="300" fill="white" rx="10" stroke="#a21caf" stroke-width="3"/>
  
  <!-- Calendar Header -->
  <rect x="100" y="150" width="300" height="50" fill="#a21caf" rx="10 10 0 0"/>
  <text x="250" y="185" font-family="Arial, sans-serif" font-size="20" text-anchor="middle" fill="white">Booking Calendar</text>
  
  <!-- Calendar Days -->
  <rect x="120" y="220" width="40" height="40" fill="#fdf4ff" rx="5" stroke="#c026d3" stroke-width="1"/>
  <rect x="170" y="220" width="40" height="40" fill="#fdf4ff" rx="5" stroke="#c026d3" stroke-width="1"/>
  <rect x="220" y="220" width="40" height="40" fill="#fdf4ff" rx="5" stroke="#c026d3" stroke-width="1"/>
  <rect x="270" y="220" width="40" height="40" fill="#fdf4ff" rx="5" stroke="#c026d3" stroke-width="1"/>
  <rect x="320" y="220" width="40" height="40" fill="#fdf4ff" rx="5" stroke="#c026d3" stroke-width="1"/>
  
  <rect x="120" y="270" width="40" height="40" fill="#fdf4ff" rx="5" stroke="#c026d3" stroke-width="1"/>
  <rect x="170" y="270" width="40" height="40" fill="#fdf4ff" rx="5" stroke="#c026d3" stroke-width="1"/>
  <rect x="220" y="270" width="40" height="40" fill="#d946ef" rx="5" stroke="#c026d3" stroke-width="1"/>
  <rect x="270" y="270" width="40" height="40" fill="#fdf4ff" rx="5" stroke="#c026d3" stroke-width="1"/>
  <rect x="320" y="270" width="40" height="40" fill="#fdf4ff" rx="5" stroke="#c026d3" stroke-width="1"/>
  
  <rect x="120" y="320" width="40" height="40" fill="#fdf4ff" rx="5" stroke="#c026d3" stroke-width="1"/>
  <rect x="170" y="320" width="40" height="40" fill="#fdf4ff" rx="5" stroke="#c026d3" stroke-width="1"/>
  <rect x="220" y="320" width="40" height="40" fill="#fdf4ff" rx="5" stroke="#c026d3" stroke-width="1"/>
  <rect x="270" y="320" width="40" height="40" fill="#d946ef" rx="5" stroke="#c026d3" stroke-width="1"/>
  <rect x="320" y="320" width="40" height="40" fill="#fdf4ff" rx="5" stroke="#c026d3" stroke-width="1"/>
  
  <rect x="120" y="370" width="40" height="40" fill="#fdf4ff" rx="5" stroke="#c026d3" stroke-width="1"/>
  <rect x="170" y="370" width="40" height="40" fill="#fdf4ff" rx="5" stroke="#c026d3" stroke-width="1"/>
  <rect x="220" y="370" width="40" height="40" fill="#fdf4ff" rx="5" stroke="#c026d3" stroke-width="1"/>
  <rect x="270" y="370" width="40" height="40" fill="#fdf4ff" rx="5" stroke="#c026d3" stroke-width="1"/>
  <rect x="320" y="370" width="40" height="40" fill="#d946ef" rx="5" stroke="#c026d3" stroke-width="1"/>
  
  <!-- Payment Icons -->
  <circle cx="150" cy="450" r="15" fill="#f9a8d4"/>
  <circle cx="190" cy="450" r="15" fill="#93c5fd"/>
  <circle cx="230" cy="450" r="15" fill="#a5b4fc"/>
  <circle cx="270" cy="450" r="15" fill="#fde68a"/>
  
  <!-- Day Numbers -->
  <text x="140" y="245" font-family="Arial, sans-serif" font-size="16" text-anchor="middle" fill="#701a75">1</text>
  <text x="190" y="245" font-family="Arial, sans-serif" font-size="16" text-anchor="middle" fill="#701a75">2</text>
  <text x="240" y="245" font-family="Arial, sans-serif" font-size="16" text-anchor="middle" fill="#701a75">3</text>
  <text x="290" y="245" font-family="Arial, sans-serif" font-size="16" text-anchor="middle" fill="#701a75">4</text>
  <text x="340" y="245" font-family="Arial, sans-serif" font-size="16" text-anchor="middle" fill="#701a75">5</text>
  
  <text x="140" y="295" font-family="Arial, sans-serif" font-size="16" text-anchor="middle" fill="#701a75">6</text>
  <text x="190" y="295" font-family="Arial, sans-serif" font-size="16" text-anchor="middle" fill="#701a75">7</text>
  <text x="240" y="295" font-family="Arial, sans-serif" font-size="16" text-anchor="middle" fill="white">8</text>
  <text x="290" y="295" font-family="Arial, sans-serif" font-size="16" text-anchor="middle" fill="#701a75">9</text>
  <text x="340" y="295" font-family="Arial, sans-serif" font-size="16" text-anchor="middle" fill="#701a75">10</text>
  
  <text x="140" y="345" font-family="Arial, sans-serif" font-size="16" text-anchor="middle" fill="#701a75">11</text>
  <text x="190" y="345" font-family="Arial, sans-serif" font-size="16" text-anchor="middle" fill="#701a75">12</text>
  <text x="240" y="345" font-family="Arial, sans-serif" font-size="16" text-anchor="middle" fill="#701a75">13</text>
  <text x="290" y="345" font-family="Arial, sans-serif" font-size="16" text-anchor="middle" fill="white">14</text>
  <text x="340" y="345" font-family="Arial, sans-serif" font-size="16" text-anchor="middle" fill="#701a75">15</text>
  
  <text x="140" y="395" font-family="Arial, sans-serif" font-size="16" text-anchor="middle" fill="#701a75">16</text>
  <text x="190" y="395" font-family="Arial, sans-serif" font-size="16" text-anchor="middle" fill="#701a75">17</text>
  <text x="240" y="395" font-family="Arial, sans-serif" font-size="16" text-anchor="middle" fill="#701a75">18</text>
  <text x="290" y="395" font-family="Arial, sans-serif" font-size="16" text-anchor="middle" fill="#701a75">19</text>
  <text x="340" y="395" font-family="Arial, sans-serif" font-size="16" text-anchor="middle" fill="white">20</text>
</svg>