<?xml version="1.0" encoding="UTF-8"?>
<svg width="800" height="600" viewBox="0 0 800 600" xmlns="http://www.w3.org/2000/svg">
  <!-- Background -->
  <rect width="800" height="600" fill="#e6f7ff"/>
  
  <!-- Buildings -->
  <rect x="100" y="200" width="150" height="300" fill="#0284c7" rx="5"/>
  <rect x="300" y="150" width="200" height="350" fill="#0369a1" rx="5"/>
  <rect x="550" y="250" width="150" height="250" fill="#075985" rx="5"/>
  
  <!-- Windows -->
  <!-- Building 1 -->
  <rect x="120" y="230" width="30" height="30" fill="#f0f9ff" rx="2"/>
  <rect x="170" y="230" width="30" height="30" fill="#f0f9ff" rx="2"/>
  <rect x="120" y="280" width="30" height="30" fill="#f0f9ff" rx="2"/>
  <rect x="170" y="280" width="30" height="30" fill="#f0f9ff" rx="2"/>
  <rect x="120" y="330" width="30" height="30" fill="#f0f9ff" rx="2"/>
  <rect x="170" y="330" width="30" height="30" fill="#f0f9ff" rx="2"/>
  <rect x="120" y="380" width="30" height="30" fill="#f0f9ff" rx="2"/>
  <rect x="170" y="380" width="30" height="30" fill="#f0f9ff" rx="2"/>
  <rect x="120" y="430" width="30" height="30" fill="#f0f9ff" rx="2"/>
  <rect x="170" y="430" width="30" height="30" fill="#f0f9ff" rx="2"/>
  
  <!-- Building 2 -->
  <rect x="330" y="180" width="35" height="35" fill="#f0f9ff" rx="2"/>
  <rect x="390" y="180" width="35" height="35" fill="#f0f9ff" rx="2"/>
  <rect x="450" y="180" width="35" height="35" fill="#f0f9ff" rx="2"/>
  <rect x="330" y="240" width="35" height="35" fill="#f0f9ff" rx="2"/>
  <rect x="390" y="240" width="35" height="35" fill="#f0f9ff" rx="2"/>
  <rect x="450" y="240" width="35" height="35" fill="#f0f9ff" rx="2"/>
  <rect x="330" y="300" width="35" height="35" fill="#f0f9ff" rx="2"/>
  <rect x="390" y="300" width="35" height="35" fill="#f0f9ff" rx="2"/>
  <rect x="450" y="300" width="35" height="35" fill="#f0f9ff" rx="2"/>
  <rect x="330" y="360" width="35" height="35" fill="#f0f9ff" rx="2"/>
  <rect x="390" y="360" width="35" height="35" fill="#f0f9ff" rx="2"/>
  <rect x="450" y="360" width="35" height="35" fill="#f0f9ff" rx="2"/>
  <rect x="330" y="420" width="35" height="35" fill="#f0f9ff" rx="2"/>
  <rect x="390" y="420" width="35" height="35" fill="#f0f9ff" rx="2"/>
  <rect x="450" y="420" width="35" height="35" fill="#f0f9ff" rx="2"/>
  
  <!-- Building 3 -->
  <rect x="570" y="280" width="30" height="30" fill="#f0f9ff" rx="2"/>
  <rect x="620" y="280" width="30" height="30" fill="#f0f9ff" rx="2"/>
  <rect x="570" y="330" width="30" height="30" fill="#f0f9ff" rx="2"/>
  <rect x="620" y="330" width="30" height="30" fill="#f0f9ff" rx="2"/>
  <rect x="570" y="380" width="30" height="30" fill="#f0f9ff" rx="2"/>
  <rect x="620" y="380" width="30" height="30" fill="#f0f9ff" rx="2"/>
  <rect x="570" y="430" width="30" height="30" fill="#f0f9ff" rx="2"/>
  <rect x="620" y="430" width="30" height="30" fill="#f0f9ff" rx="2"/>
  
  <!-- Ground -->
  <rect x="0" y="500" width="800" height="100" fill="#e0e7ff"/>
  
  <!-- Dashboard Element -->
  <rect x="50" y="50" width="200" height="120" fill="white" rx="10" stroke="#0284c7" stroke-width="3"/>
  <rect x="60" y="70" width="180" height="20" fill="#edf2f7" rx="4"/>
  <rect x="60" y="100" width="80" height="60" fill="#edf2f7" rx="4"/>
  <rect x="150" y="100" width="90" height="60" fill="#edf2f7" rx="4"/>
  <text x="150" y="60" font-family="Arial, sans-serif" font-size="16" text-anchor="middle" fill="#0284c7">Property Dashboard</text>
</svg>